<svg width="417" height="953" viewBox="0 0 417 953" fill="none" xmlns="http://www.w3.org/2000/svg">
<g clip-path="url(#clip0_2_1107)">
<g opacity="0.930239">
<path d="M81.2836 897.733C81.2836 894.001 84.3123 890.975 88.0477 890.975C91.7832 890.975 94.8119 894.001 94.8119 897.733C94.8119 901.464 91.7832 904.49 88.0477 904.49C84.3123 904.49 81.2836 901.464 81.2836 897.733Z" fill="#AEB5BB"/>
</g>
<g opacity="0.813971">
<path d="M67.7552 179.717C67.7552 175.981 70.784 172.964 74.5194 172.964C78.2549 172.964 81.2836 175.981 81.2836 179.717C81.2836 183.449 78.2549 186.471 74.5194 186.471C70.784 186.471 67.7552 183.449 67.7552 179.717Z" fill="#AEB5BB"/>
</g>
<g opacity="0.911636">
<path d="M295.428 118.499C295.428 114.762 298.453 111.745 302.193 111.745C305.928 111.745 308.957 114.762 308.957 118.499C308.957 122.231 305.928 125.252 302.193 125.252C298.453 125.252 295.428 122.231 295.428 118.499Z" fill="#AEB5BB"/>
</g>
<g opacity="0.406985">
<path d="M119.389 30.9773C119.389 28.4557 121.434 26.4122 123.958 26.4122C126.482 26.4122 128.527 28.4557 128.527 30.9773C128.527 33.4944 126.482 35.5424 123.958 35.5424C121.434 35.5424 119.389 33.4944 119.389 30.9773Z" fill="#AEB5BB"/>
</g>
<g opacity="0.837224">
<path d="M251.63 724.391C251.63 721.87 253.676 719.826 256.2 719.826C258.724 719.826 260.769 721.87 260.769 724.391C260.769 726.913 258.724 728.956 256.2 728.956C253.676 728.956 251.63 726.913 251.63 724.391Z" fill="#AEB5BB"/>
</g>
<g opacity="0.732537">
<path d="M329.548 890.975C329.548 887.497 332.37 884.678 335.851 884.678C339.332 884.678 342.154 887.497 342.154 890.975C342.154 894.452 339.332 897.272 335.851 897.272C332.37 897.272 329.548 894.452 329.548 890.975Z" fill="#AEB5BB"/>
</g>
<path d="M223.064 786.714C251.681 809.951 287.579 833.69 314.808 845.031" stroke="#AEB5BB" stroke-miterlimit="10" stroke-linecap="round" stroke-dasharray="25 25"/>
<path d="M126.872 519.74C128.011 509.727 148.932 418.79 148.932 418.79L166.8 416.185C166.8 416.185 180.214 518.299 180.709 529.434C181.487 546.776 163.73 561.288 147.184 556.659C127.163 551.058 125.732 529.754 126.872 519.74Z" fill="#848D96"/>
<path d="M169.281 397.128C174.337 396.168 178.19 394.009 178.23 396.455C178.266 398.3 172.551 401.833 171.281 402.796C169.835 403.888 167.348 402.776 167.011 400.73C166.787 399.342 167.514 397.463 169.281 397.128Z" fill="#586067"/>
<path d="M151.431 401.532C149.74 396.182 145.993 384.37 147.893 382.926C149.728 381.531 158.257 390.399 162.634 394.607C164.56 396.452 164.792 400.623 162.26 403.636C159.6 406.804 153.121 406.886 151.431 401.532Z" fill="#586067"/>
<path d="M150.231 420.401C148.929 420.165 148.057 418.936 148.276 417.633C150 412.306 151.335 404.455 151.064 400.712C150.46 392.398 158.264 390.532 162.162 394.165C165.572 397.337 166.64 398.199 168.714 397.247C171.197 396.116 174.374 399.592 171.502 402.674C170.039 404.234 168.641 405.806 168.141 407.714C167.637 409.621 167.686 414.425 168.223 418.361C168.31 419.699 167.291 420.847 165.952 420.929C165.752 420.941 165.554 420.937 165.359 420.901L150.231 420.401Z" fill="#586067"/>
<path d="M299.325 448.596C305.929 431.417 324.733 392.904 342.409 379.045L340.68 357.525C322.225 359.676 285.672 372.963 274.58 378.999C263.487 385.03 235.707 402.188 247.623 444.753C259.543 487.318 292.72 465.776 299.325 448.596Z" fill="#848D96"/>
<path d="M348.898 355.779L342.268 356.407C340.951 356.538 339.983 357.706 340.109 359.026L341.865 377.527C341.991 378.842 343.16 379.809 344.472 379.686L365.597 377.677C369.059 377.345 371.603 374.271 371.276 370.812L369.955 356.922L369.663 353.822L368.654 343.24C368.39 340.349 365.834 338.219 362.936 338.483C362.927 338.483 362.913 338.486 362.9 338.485C360.835 338.679 359.072 340.065 358.402 342.021L355.405 350.686C354.419 353.515 351.876 355.503 348.898 355.779Z" fill="#586067"/>
<path d="M302.847 493.176C312.033 490.949 321.338 496.391 323.894 505.485L329.032 523.793C334.843 544.374 322.858 565.775 302.256 571.585C302.256 571.589 302.251 571.589 302.247 571.589L166.812 609.787C146.214 615.597 124.794 603.625 118.983 583.04C118.984 583.035 118.979 583.035 118.979 583.031L107.272 540.587L302.847 493.176Z" fill="#6C7986"/>
<path d="M80.8152 488.626L81.2462 488.708C82.453 488.939 83.6041 489.204 84.7861 489.564C85.7691 489.796 86.783 490.124 87.7843 490.494C89.588 491.107 91.3237 491.841 93.0346 492.704C94.0194 493.16 94.9833 493.702 95.9084 494.236L95.8919 494.322L94.5051 502.498L90.231 527.317L90.2227 527.36C90.78 528.182 91.2301 529.072 91.5471 529.981C91.7312 530.418 91.9071 530.898 92.005 531.319C92.0847 531.602 92.177 531.843 92.2218 532.075L92.2135 532.118C92.2584 532.35 92.3072 532.538 92.3603 532.727C93.4399 538.739 90.8507 545.033 85.4036 548.502C82.4057 550.385 79.003 551.119 75.7126 550.803C71.1558 550.333 66.8459 547.856 64.2138 543.646C63.9435 543.192 63.6774 542.739 63.4154 542.243C63.2229 541.849 63.0305 541.455 62.9243 541.077C62.8712 540.888 62.8098 540.742 62.7484 540.597L62.701 540.588C62.691 540.407 62.6339 540.262 62.5725 540.116C62.2822 539.302 62.0945 538.417 61.9931 537.549L42.7569 521.588L31.2742 512.068C31.8175 511.1 32.3565 510.131 32.9778 509.222L33.0417 509.145C42.6353 494.321 59.8253 486.219 77.3381 488.095C78.4753 488.223 79.6515 488.403 80.8152 488.626Z" fill="#545A5E"/>
<path d="M80.8169 488.628L81.2479 488.711C82.4547 488.941 83.6101 489.207 84.792 489.567C85.775 489.8 86.7846 490.127 87.7859 490.497C89.5813 491.153 91.3601 491.895 93.0279 492.75C94.0044 493.249 94.9808 493.749 95.8977 494.326C96.9786 494.979 98.0596 495.633 99.0726 496.407C113.552 506.634 121.508 524.77 117.943 543.338C113.079 568.669 88.5662 585.33 63.1808 580.475C37.8384 575.629 21.2341 551.105 26.0981 525.774C26.917 521.509 28.2714 517.48 30.1448 513.774L31.9271 510.542L31.9354 510.499C41.1458 495.11 58.8136 485.939 77.3441 488.098C78.4812 488.226 79.6532 488.406 80.8169 488.628Z" fill="#ACB6BE"/>
<path d="M80.8089 488.629L81.2399 488.712C82.4467 488.942 83.6021 489.208 84.7841 489.568C85.7671 489.801 86.7767 490.128 87.778 490.498C89.5817 491.111 91.3175 491.845 93.0284 492.708C94.0132 493.164 94.9814 493.707 95.9066 494.241L95.89 494.327L94.499 502.502L90.2248 527.322L90.2165 527.365L90.1503 527.709C88.5524 536.962 79.7529 543.229 70.4964 541.637C67.5059 541.155 64.7588 539.87 62.4458 537.954L61.9865 537.554L42.746 521.636L31.267 512.072C31.8104 511.104 32.3537 510.136 32.975 509.227L33.0346 509.149C42.6283 494.325 59.8229 486.224 77.336 488.099C78.4732 488.227 79.6451 488.407 80.8089 488.629Z" fill="#586067"/>
<path d="M93.0296 492.707C94.0144 493.164 94.9827 493.706 95.9078 494.24L95.8912 494.326C96.9722 494.98 98.0533 495.633 99.0663 496.408L93.8129 527.025L93.7302 527.456C93.4158 529.093 92.9025 530.603 92.2251 532.036L92.2085 532.122C88.4587 540.249 79.5972 545.209 70.3405 543.618C67.66 543.15 65.087 542.122 62.7774 540.653C62.7774 540.653 62.7343 540.644 62.7426 540.601L62.6995 540.593C62.0164 540.194 61.393 539.718 60.7778 539.198L60.3185 538.798L30.1359 513.776L31.9183 510.543L31.9266 510.5L32.9754 509.227L33.0351 509.149L33.7856 508.265L62.3134 531.899L65.0079 534.156C66.8616 535.672 69.0733 536.72 71.4521 537.131C78.9416 538.384 86.1056 533.189 87.3312 525.875L87.4139 525.444L87.6025 524.229L93.0214 492.75L93.0296 492.707Z" fill="#C7CED5"/>
<path d="M80.1464 520.448C88.4742 522.058 93.9384 530.088 92.3825 538.424C90.7888 546.77 82.727 552.245 74.377 550.657C67.8552 549.414 62.8686 544.133 62.0049 537.554C61.8003 535.921 61.8511 534.26 62.1527 532.643C63.7517 524.316 71.8024 518.852 80.1335 520.445L80.1464 520.448Z" fill="#C7CED5"/>
<path d="M48.7221 502.663C50.8869 500.768 53.2985 499.17 55.8893 497.919C58.4154 496.655 61.0841 495.696 63.8338 495.06C66.5686 494.409 69.3654 494.086 72.1735 494.1C74.9608 494.106 77.7383 494.396 80.4663 494.967C80.8085 495.024 81.0382 495.34 80.9858 495.683C80.9299 496.021 80.6124 496.255 80.2702 496.198L80.2314 496.191C77.5812 495.773 74.8961 495.631 72.2131 495.756C66.8902 496.016 61.6973 497.506 57.046 500.11C54.7643 501.357 52.663 502.899 50.7806 504.696L50.7037 504.771C50.1478 505.339 49.2302 505.347 48.6629 504.787C48.0956 504.227 48.0876 503.315 48.6479 502.747C48.6582 502.74 48.665 502.728 48.6761 502.717L48.7221 502.663Z" fill="white"/>
<path d="M206.125 440.776C192.668 455.574 175.959 468.429 154.317 471.837C152.947 472.063 175.724 505.297 175.724 505.297C175.724 505.297 143.881 498.068 130.82 506.975C112.849 519.225 110.544 540.759 120.568 559.248C130.402 577.402 167.993 579.093 229.945 564.271C291.897 549.457 320.809 518.025 311.092 484.679C301.379 451.325 254.107 387.997 206.125 440.776Z" fill="#A1ABB4"/>
<path d="M231.064 355.655C223.527 365.046 214.096 390.389 234.107 406.447C253.284 421.845 276.79 412.407 283.838 395.877C297.366 364.125 322.444 352.437 322.444 352.437L306.014 309.786C306.014 309.786 246.777 336.066 231.064 355.655Z" fill="#A1ABB4"/>
<path d="M321.132 301.751L305.554 308.242C304.336 308.748 303.753 310.148 304.262 311.367L304.267 311.375L321.576 352.899C322.085 354.118 323.484 354.694 324.709 354.187L368.892 335.776C375.724 332.925 378.957 325.079 376.111 318.246L364.686 290.833L362.122 284.674L353.41 263.794C351.023 258.055 344.436 255.346 338.702 257.735C338.698 257.732 338.695 257.736 338.695 257.736C334.622 259.426 331.917 263.343 331.773 267.75L331.136 287.262C330.923 293.63 327.016 299.289 321.132 301.751Z" fill="#586067"/>
<path d="M223.143 366.326C216.184 390.453 213.628 419.1 212.985 432.465C212.351 445.831 213.701 487.644 221.431 510.655C234.342 549.119 271.646 545.004 279.319 541.922C307.02 530.797 315.887 509.725 312.201 488.068C306.377 453.827 286.74 412.244 286.991 377.742C287.122 360.497 278.182 344.865 259.391 341.754C241.708 338.826 226.62 354.267 223.143 366.326Z" fill="#A1ABB4"/>
<path d="M178.041 507.258C178.041 507.258 136.56 461.831 135.218 461.629L90.5252 415.645L71.7488 425.122C71.7488 425.122 110.425 537.827 119.054 557.004C122.101 563.786 128.9 568.704 139.282 571.741C145.511 573.565 166.031 575.512 177.341 560.009C197.967 531.738 178.041 507.258 178.041 507.258Z" fill="#A1ABB4"/>
<path d="M52.9994 400.781C47.0127 394.524 33.7953 380.727 35.4418 377.439C37.0342 374.263 54.8696 380.741 63.7922 383.583C67.7052 384.831 70.8744 390.434 69.4206 396.33C67.8926 402.516 58.9861 407.039 52.9994 400.781Z" fill="#586067"/>
<path d="M71.6996 382.071C74.2765 374.572 74.3282 367.769 77.6368 369.582C80.1355 370.946 80.5 381.286 80.8135 383.717C81.1752 386.488 77.7971 388.973 74.7943 387.851C72.7639 387.099 70.7947 384.694 71.6996 382.071Z" fill="#586067"/>
<path d="M73.2844 424.884C71.4379 425.756 69.2339 424.988 68.3439 423.149C64.8786 415.498 60.1954 408.465 54.4632 402.327C46.7191 394.339 53.0513 381.984 61.2009 383.056C68.3233 383.997 70.4316 384.112 72.1909 381.064C74.2934 377.426 81.3998 378.957 80.546 385.388C80.1123 388.658 79.7554 391.88 80.8293 394.727C81.9038 397.569 87.3876 406.2 91.7142 411.196C93.0183 412.798 92.7648 415.154 91.1608 416.458C90.9203 416.649 90.6607 416.815 90.3793 416.944L73.2844 424.884Z" fill="#586067"/>
</g>
<defs>
<clipPath id="clip0_2_1107">
<rect width="1013" height="417" fill="white" transform="translate(0 953) rotate(-90)"/>
</clipPath>
</defs>
</svg>
